<svg id="Capa_1" enable-background="new 0 0 512 512" height="512" viewBox="0 0 512 512" width="512" xmlns="http://www.w3.org/2000/svg"><g><path d="m285.984 181.555c8.221 1.55 15.98 6.961 22.398 12.663 10.152-11.173 20.733-21.847 33.5-29.84 10.763-30.857 9.768-65.235-2.97-95.433l-29.048-68.865-28.536 69.077c-13.444 32.544-13.306 69.817.38 102.26z" fill="#59c36a"/><g><path d="m443.138 173.17c-32.444-13.685-69.716-13.824-102.26-.38l-1.65.682-25.66 25.66c7.058 7.098 12.493 16.556 15.585 26.388l11.51 4.855c16.378 6.908 33.982 10.364 51.592 10.364 17.274 0 34.552-3.327 50.668-9.984l69.077-28.536z" fill="#00a66c"/></g><path d="m287.756 224.366 30.989-75.405c14.6-35.526 43.349-64.275 78.875-78.875l75.405-30.99-30.99 75.406c-14.6 35.526-43.349 64.274-78.875 78.875z" fill="#97de3d"/><path d="m287.897 224.022-.141.344 75.405-30.989c35.526-14.601 64.275-43.349 78.875-78.875l30.99-75.406-154.409 154.206z" fill="#59c36a"/><path d="m315.655 190.593c-14.738-12.744-33.56-18.987-52.988-17.577-19.432 1.409-37.152 10.302-49.896 25.039-2.137 2.472-9.885 12.749-21.498 28.415-3.232 4.36 7.151 11.641 3.358 16.783-4.172 5.656-22.575 9.251-27.33 15.721-6.457 8.786-13.406 18.26-20.72 28.246-3.305 4.512 1.312 11.382-2.13 16.087-4.035 5.515-16.152 8.897-20.342 14.63-39.292 53.763-84.58 115.986-120.523 165.427-11.928 16.407 8.361 36.851 24.859 25.05 49.438-35.363 111.729-80.033 166.314-119.521 5.803-4.198 9.241-17.176 14.845-21.24 4.451-3.227 11.109 2.432 15.406-.69 9.975-7.248 19.503-14.191 28.431-20.72 6.729-4.921 10.078-17.083 16.057-21.486 4.82-3.549 12.412.56 16.667-2.598 21.09-15.656 34.816-26.209 36.954-28.682 26.307-30.424 22.959-76.577-7.464-102.884z" fill="#fd8f24"/><g><path d="m5.406 506.514c5.648 5.65 14.814 7.784 23.039 1.9 49.438-35.363 111.729-80.033 166.314-119.521 5.803-4.198 9.241-17.176 14.845-21.24 4.451-3.227 11.109 2.432 15.406-.69 9.975-7.248 19.503-14.191 28.431-20.72 6.729-4.921 10.078-17.083 16.057-21.486 4.82-3.549 12.412.56 16.667-2.598 21.09-15.656 34.816-26.209 36.954-28.682 25.427-29.405 23.145-73.5-4.503-100.172z" fill="#fc6533"/></g><path d="m194.639 308.921c-14.086-12.181-30.851-19.626-47.999-21.783-7.2 9.83-14.755 20.157-22.546 30.818 16.886-4.169 36.29 1.004 50.922 13.657 1.095.947 2.151 1.93 3.167 2.946 14.873 14.878 36.222-6.112 21.612-20.826-1.648-1.659-3.367-3.264-5.156-4.812z" fill="#fdb55d"/><path d="m252.116 250.174c-17.078-14.768-38.618-23.007-60.663-23.946-6.847 9.236-15.05 20.362-24.249 32.879 22.557-6.884 47.429-1.686 65.29 13.759 1.466 1.268 2.869 2.59 4.208 3.962 17.86 18.306 38.754-3.512 20.921-21.51-1.761-1.775-3.596-3.492-5.507-5.144z" fill="#fdb55d"/><g fill="#fd8f24"><path d="m194.264 389.251c-.085.03 31.205-22.59 31.288-22.682-2.204-19.562-11.495-38.796-26.58-53.621l-21.207 21.207c15.169 14.884 21.591 37.018 16.499 55.096z"/><path d="m252.852 346.673c-.005.041 33.306-24.47 33.381-24.566-.79-24.954-10.976-49.242-29.127-67.293l-21.213 21.213c18.469 18.309 25.153 45.867 16.959 70.646z"/></g></g></svg>